<?xml version="1.0" encoding="UTF-8"?>
<svg id="Layer_2" xmlns="http://www.w3.org/2000/svg" viewBox="0 0 312.15 147.58">
  <defs>
    <style>
      .cls-1 {
        fill: #303030;
      }
    </style>
  </defs>
  <g id="Layer_9">
    <g>
      <g>
        <path class="cls-1" d="M137.12,147.58v-70.08h14.07v58.13h14.47v11.94h-28.54,0Z"/>
        <path class="cls-1" d="M167.74,147.58l6.79-70.08h23.86l6.68,70.08h-13.31l-1-11.31h-8.47l-.88,11.31h-13.67ZM183.29,125.09h6.39l-3.07-35.63h-.64l-2.68,35.63Z"/>
        <path class="cls-1" d="M209.39,147.58v-70.08h19.06c5.12,0,8.84,1.24,11.17,3.72s3.5,6.57,3.5,12.29v3.06c0,3.3-.6,5.96-1.78,8.01-1.19,2.04-2.99,3.38-5.41,4.02,3.17.79,5.29,2.67,6.38,5.59,1.08,2.93,1.62,6.51,1.62,10.73,0,4.54-.42,8.51-1.28,11.91-.86,3.4-2.4,6.04-4.63,7.92-2.23,1.89-5.42,2.83-9.55,2.83h-19.07ZM223.14,103.91h2.88c1.31,0,2.15-.5,2.52-1.51s.56-2.22.56-3.62v-7.05c0-2.25-1-3.38-3-3.38h-2.95v15.56h0ZM224.53,135.24c3.65,0,5.47-1.73,5.47-5.18v-8.76c0-1.99-.3-3.56-.9-4.72s-1.72-1.73-3.38-1.73h-2.6v20.3c.59.05,1.05.08,1.39.08h0Z"/>
      </g>
      <g>
        <path class="cls-1" d="M137.12,70.61V.54h28.14v13.54h-13.83v13.66h13.27v13.17h-13.27v16.05h14.75v13.66h-29.06Z"/>
        <path class="cls-1" d="M177.29,70.61L168.61.5h13.39l5.15,47.69L191.76.5h13.39l-8.67,70.11h-19.19Z"/>
        <path class="cls-1" d="M209.23,70.61V.54h28.14v13.54h-13.83v13.66h13.27v13.17h-13.27v16.05h14.75v13.66h-29.06Z"/>
        <path class="cls-1" d="M242.92,70.61V.54h14.47l6.48,33.56V.54h13.59v70.08h-13.75l-7.03-35.04v35.04h-13.76Z"/>
        <path class="cls-1" d="M289.72,70.61V14h-8.35V.54h30.78v13.46h-8.36v56.62h-14.07Z"/>
      </g>
      <path class="cls-1" d="M2.75,86.24c-.33-.77.49-1.35,1.13-1.65.88-.42,1.93-.54,2.88-.33,1.45.33,2.59,1.29,3.6,2.32,2.25,2.28,4.18,5.07,7.43,5.99,1.61.46,2.3-2.04.69-2.49-1.72-.48-2.98-1.75-4.16-3.02-1.3-1.4-2.51-2.86-4.07-3.99-1.79-1.29-4.05-1.83-6.23-1.28s-4.84,2.65-3.79,5.13c.27.65.86,1.1,1.6.91.61-.16,1.18-.94.91-1.6h0Z"/>
      <path class="cls-1" d="M52.21,138.7l2.88,1.75,1.44.88c.22.14.44.27.66.41.09.06.18.11.27.17.06.04.12.08.17.12-.1-.09-.12-.09-.05-.04.08.07.16.14.23.21.03.03.24.28.14.14s.07.14.1.16c.04.09.03.06-.03-.08.02.05.03.1.04.16.02.09.02.07,0-.07v.16c0,.09,0,.08.02-.07,0,.05-.02.11-.03.16,0,.04-.12.35-.06.22s-.1.17-.11.21-.23.33-.12.19-.1.09-.12.12c-.03.03-.07.07-.1.09.12-.09.15-.11.07-.06-.09.04-.16.09-.25.15-.09.04-.06.03.1-.04-.04.02-.09.03-.13.03-.11.02.29.03,0,0-.1,0-.06,0,.14.03-.1-.03-.1-.03,0,0,.14.1.27.22.1,0-.43-.53-1.39-.48-1.84,0-.51.56-.47,1.27,0,1.83,1,1.21,2.82.69,3.79-.26,1.08-1.06,1.51-2.75.79-4.12-.61-1.17-1.97-1.81-3.06-2.47l-3.72-2.27c-.58-.35-1.46-.15-1.78.47s-.16,1.39.47,1.77h0v.03Z"/>
      <g>
        <polygon class="cls-1" points="85.49 28.68 87.93 16.65 95.39 10.67 97.83 0 108.73 10.22 96.04 17.97 85.49 28.68"/>
        <path class="cls-1" d="M81.85,35.5l4.08-20.06,7.48-6L97.89.09l14.46,10.49-14.93,9.12-15.57,15.81ZM89.93,17.87l-.81,3.99,5.53-5.62,10.47-6.4-6-5.62-1.76,7.69-7.44,5.96h0Z"/>
      </g>
      <g>
        <polygon class="cls-1" points="96.63 29.49 105.21 26.56 109.64 17.46 120.33 17.89 126.16 9.84 128.02 20.54 118.14 26.13 106.92 26.09 96.63 29.49"/>
        <path class="cls-1" d="M84.14,36.31l17.66-14.27,6.52-7.5,11.28,1.6L129.82.21l-1.26,20.28-9.42,9.3-12.56-3.6-22.45,10.12h0Z"/>
      </g>
      <path class="cls-1" d="M114.64,46.72l-9.37-4.68-22.69-1.98,21.84-5.65,8.97-2.97,13.19,2.7v10.33l-11.93,2.24h0Z"/>
      <path class="cls-1" d="M57.23,47.92s0,.04-.02.06v-.06h.02Z"/>
      <path class="cls-1" d="M62.08,27.65s-.04.03-.07.06c0-.02.03-.03.03-.04,0,0,.03,0,.03,0h0Z"/>
      <path class="cls-1" d="M60.43,39.09h0s-.02,0,0,.02c.01,0,.01,0,0-.02h0Z"/>
      <path class="cls-1" d="M62.33,41.69h0v.03s0-.03,0-.03Z"/>
      <path class="cls-1" d="M65.79,54.37l-.05-.03h.04s0,.02,0,.03Z"/>
      <path class="cls-1" d="M62.05,27.66s.03,0,.03,0c-.03,0-.04.03-.07.06,0-.02.03-.03.03-.04h0Z"/>
      <path class="cls-1" d="M65.06,27.67s0,.02-.03.03v-.02s0-.02.02,0h0Z"/>
      <path class="cls-1" d="M62.08,27.65s-.04.03-.07.06c0-.02.03-.03.03-.04,0,0,.03,0,.03,0h0Z"/>
      <path class="cls-1" d="M65.04,27.68v.02s.03-.02.03-.03t-.02,0h0ZM62.34,41.72v-.03h0s0,.03,0,.03Z"/>
      <g>
        <path class="cls-1" d="M63.09,27.94s.04-.04.07-.06c0,0-.03,0-.03,0,0,.02-.03.03-.03.04h0Z"/>
        <path class="cls-1" d="M58.18,49.71s0-.03.02-.05h0v.05h0Z"/>
        <path class="cls-1" d="M66.13,27.91v.02s.03-.02.03-.03t-.02,0h0Z"/>
        <path class="cls-1" d="M79.73,39.91c-1.25-4.27-3.15-8.11-5.37-10.79-2.43-2.96-5.03-4.23-7.32-3.58-.21.06-.42.14-.62.23-.21,0-.41.05-.61.12h0c-.1,0-.22.03-.33.08-.47.2-.99.36-1.39.68-.04.03-.09.08-.13.12-.87.5-1.52,1.39-2.1,2.23-.23.34-.47.67-.7,1.01-2.42,3.03-4.05,6.22-6.38,9.72-2.21.61-4.33,1.36-6.42,2.31-.07.03-.14.07-.19.11-.03.02-.07.05-.1.07-.23.16-.4.42-.42.76-.3,4.16.51,10.09,3.92,13.01.1.08.19.13.28.17.06.03.15.05.22.06.15.03.3.02.48-.03,2.26-.7,4.52-1.41,6.78-2.11.07.03.15.04.23.06,2.52.28,4.59,1.47,6.88,2.44,2.15.91,4.37,1.53,6.68,1.9,0,0,1.88.41,2.62.42.32,0,.65-.07.96-.16,4.48-1.27,5.78-9.37,3.01-18.84h.03ZM58.18,49.71v-.05h0s0,.03-.02.05h0ZM63.09,27.94s.03-.03.03-.04c0,0,.03,0,.03,0-.03,0-.04.03-.07.06h0ZM66.13,27.91s0-.02.02,0c0,0,0,.02-.03.03v-.02h0ZM78.28,54.43c-.5.91-1.18,1.49-1.99,1.72-.26.08-.53.11-.81.11-3.65,0-8.14-6.4-10-12.79-1.65-5.63-1.65-11.61-.03-14.54.55-.97,1.25-1.6,2.09-1.84,3.69-1.05,8.36,5.81,10.42,12.87,1.72,5.9,1.85,11.71.32,14.46h0Z"/>
        <path class="cls-1" d="M68.34,28.71c-.11,0-.23.02-.34.04-.38.11-.74.45-1.05,1.01-1.2,2.16-1.52,7.39.18,13.22,2.15,7.36,6.73,12.04,8.66,11.5.36-.1.68-.41.95-.9,1.27-2.3,1.08-7.83-.47-13.14-1.98-6.82-5.81-11.73-7.94-11.73ZM72.54,48.01c-.94.27-2.7-2.29-3.59-5.36-.89-3.07-.86-6.14.08-6.41.94-.27,3.17,2.09,4.07,5.16.89,3.07.39,6.35-.55,6.61h0Z"/>
      </g>
      <path class="cls-1" d="M3.66,89.3c7.51,7.08,19.79,15.77,29.63,7.09,3.85-3.4,5.47-8.44,6-13.39.36-3.39-.25-7.19.44-10.51.47-2.27.81-3.08,3.15-3.48,1.56-.27,3.55.28,5.1.45,7.43.82,14.86,1.65,22.29,2.47,6.31.7,12.84,1.9,19.19,1.38,5.54-.46,10.23-2.41,14.35-6.12,2.26-2.04,4.43-5.01,7.36-6.15,4.05-1.57,6.26,1.05,8.45,4.18,2.53,3.62,8.54.17,5.99-3.49-3.03-4.33-6.69-8.47-12.46-8.21s-9.52,4.33-13.28,7.89c-5.41,5.12-11.51,5.45-18.63,4.81s-14.47-1.59-21.71-2.39c-3.58-.4-7.15-.79-10.73-1.19-3.07-.34-6.37-.98-9.41-.11-5.63,1.6-6.54,7.15-6.71,12.21-.2,5.7.61,15.21-6.14,17.76-6.76,2.55-13.5-3.84-17.99-8.08-3.24-3.05-8.14,1.82-4.9,4.88h0Z"/>
      <path class="cls-1" d="M49.74,69.75c.88,5.25,1.77,10.48,2.66,15.73s1.54,9.85,4.55,14.08c2.78,3.92,5.93,7.44,8.27,11.66,1.4,2.54,2.62,5.19,3.46,7.98.23.75.99,2.42.76,3.18-.49,1.66-3.25,1.58-4.52,1.63-7.16.3-17.15-8.28-22.99-.68-5.3,6.89,5.15,16.71,9.86,20.94,3.3,2.97,8.22-1.9,4.9-4.88-2.69-2.42-7.87-6.66-8.69-10.32s3.98-1.12,5.56-.47c1.92.79,3.82,1.49,5.87,1.86,7.26,1.33,18.35-.07,16.73-9.89-1.43-8.68-6.82-16.33-12.13-23.07-3.35-4.26-4.06-8.65-4.95-13.86l-2.66-15.73c-.74-4.37-7.41-2.52-6.68,1.84h-.03Z"/>
      <path class="cls-1" d="M119.47,138.75c-4.26.72-9.36,1.72-13.3-.66-4.56-2.74-2.87-7.51-2.37-11.87.73-6.44,1.89-15.56-5.1-18.98-3.24-1.59-6.84-1.9-10.04-3.74-3.46-1.99-6.47-4.78-8.82-7.99-5.38-7.35-7.28-16.48-7.67-25.41-.19-4.43-7.12-4.45-6.93,0,.83,19.19,9.12,36.81,28.5,42.75,2.91.89,3.44,1.91,3.56,4.87.1,2.56-.08,5.19-.35,7.73-.48,4.45-1.77,8.89.39,13.11,4.58,8.99,15.54,8.27,23.97,6.83,4.38-.75,2.53-7.4-1.84-6.65h0Z"/>
      <path class="cls-1" d="M64.8,114.32l.22.28v-3.49l-.25.35,3.92-1.59c-.74-.12-2.69-2.7-3.27-3.29-1.28-1.31-2.53-2.67-3.67-4.1-2.17-2.7-4.08-5.73-5.28-8.98-2.86-7.7-1.66-16.14-.51-24.05.63-4.35-6.05-6.22-6.68-1.84-1.46,9.97-2.78,20.27,1.35,29.81,1.75,4.04,4.24,7.65,7.11,10.99,2.11,2.46,5.68,7.53,9.12,8.11,1.67.28,2.94-.23,3.92-1.59l.25-.35c.65-.9.67-2.59,0-3.49l-.22-.28c-2.62-3.54-8.64-.09-5.99,3.49h-.02Z"/>
      <path class="cls-1" d="M62.98,114.35c2.06,2.06,4.39,3.74,3.37,5.25-1.32,1.95-5.48.35-7.13-.17-3.04-.97-5.92-2.34-9.09-2.86-5.59-.93-11.66.54-14.23,6.04-5.77,12.36,10.27,22.76,20.71,23.6,4.44.35,4.42-6.55,0-6.9-5.33-.43-15.36-5.56-14.85-11.97.64-8.11,12.33-2.23,16.31-1.03,4.72,1.42,11.39,1.99,14.21-3.04s-.33-10.07-3.47-13.99c-2.78-3.47-7.66,1.44-4.9,4.88l-.94.21v-.02Z"/>
      <path class="cls-1" d="M55.85,139.75c-1.38-1.87-3.72-4.49-1.83-6.51,1.5-1.6,3.85-.48,5.76.19,3.75,1.32,7.24,3.21,11.23,3.76,8.43,1.17,10.26-6.16,8.95-13.04-.81-4.24-2.72-8.22-4.24-12.23-1.64-4.33-3.16-8.7-4.62-13.09-3.07-9.3-5.82-18.71-8.56-28.13-.93-3.19-5.85-3.37-6.68,0-2.95,11.87-1.56,23.99,3.9,34.93,1.49,3,6.74,1.65,6.45-1.74-.42-5.02-1.19-9.97-2.35-14.87-1.02-4.32-7.7-2.49-6.68,1.84s1.72,8.63,2.1,13.04l6.45-1.74c-4.61-9.24-5.68-19.6-3.2-29.61h-6.68c2.74,9.4,5.48,18.82,8.56,28.13,1.54,4.65,3.16,9.27,4.9,13.85,1.53,4.01,4.9,9.72,4.12,14.16-.48,2.74-2.81,1.54-4.92.83-1.91-.65-3.76-1.51-5.64-2.24-3.32-1.29-7.27-2.5-10.8-1.4-8.22,2.58-6.06,12.14-2.22,17.39,2.6,3.55,8.62.11,5.99-3.49h0Z"/>
      <path class="cls-1" d="M73.68,124.39c-1.17.46-1.92,1.6-2.88,2.04-1.14.52-3.53-.09-4.98-.36-4.17-.79-8.19-2.16-12.43-2.52-5.77-.49-13.13,3.82-9.12,10.33,2.33,3.78,8.32.32,5.99-3.49-.08-.12,4.75.28,4.39.22,1.21.19,2.41.48,3.6.77,2.62.62,5.22,1.32,7.89,1.72,2,.29,4.19.6,6.19.2,1.06-.21,1.85-.47,2.67-1.16.31-.26,1.9-1.63.52-1.09,4.1-1.61,2.31-8.29-1.84-6.65h0Z"/>
      <path class="cls-1" d="M62.52,70.62c-1.14,4.22.98,9.27,2.31,13.28,1.52,4.6,3.46,9.15,6.08,13.25,2.34,3.67,5.21,7.07,8.59,9.83,3.59,2.92,7.55,4.27,11.52,6.45,4.24,2.34,2.66,10.98,2.74,15.23s-.02,8.52,2.59,12.11c5.48,7.58,15.52,6.46,23.54,4.85,4.37-.88,2.52-7.53-1.84-6.65-3.94.79-8.38,1.81-12.31.41-5.08-1.81-4.97-6.13-5.05-10.72-.11-6.61,1.68-15.94-4.63-20.28-2.78-1.92-6.17-2.73-9.04-4.5-3.33-2.04-6.25-4.86-8.58-7.99-2.63-3.54-4.62-7.54-6.15-11.66-1.07-2.88-3.9-8.78-3.08-11.8,1.16-4.3-5.52-6.13-6.68-1.84h0v.02Z"/>
      <path class="cls-1" d="M122.21,138.5c-2.98-2.1-6.25-1.74-9.48-3.01-4.53-1.78-3.92-7.48-3.33-11.37,1.06-6.98,2.43-14.96-3.7-20.15-2.52-2.13-5.79-3-8.91-3.86-3.86-1.05-7.24-2.62-10.2-5.36-6.69-6.17-13.28-17.95-8.45-17.14,4.39.73-9.7-9.26-8.94-4.91,1.5,8.64,4.13,17.24,9.83,24.09,2.51,3.02,5.61,5.68,9.12,7.47s7.7,2.15,11.29,3.87c8.42,4.05,1.42,17.2,3.01,24.31.72,3.18,2.35,6.31,5.12,8.17,3.41,2.29,7.86,1.53,11.14,3.83,3.65,2.57,7.12-3.42,3.5-5.96h0Z"/>
      <path class="cls-1" d="M4.91,81.71c-5.89-.22-5.94,6.19-2.9,9.57,4,4.44,9.58,8.21,15.39,9.76,5.81,1.55,12.02,1.04,16.56-2.86,5.24-4.49,3.96-10.19,5.71-16.13,1.26-4.27-5.43-6.1-6.68-1.84-.9,3.08-.51,6.39-1.42,9.43-1.1,3.68-4.62,5.26-8.28,5.3-3.39.03-6.66-1.23-9.53-2.94-1.34-.8-2.62-1.72-3.8-2.73-.71-.6-1.39-1.23-2.06-1.88-.81-1.39-1.25-1.33-1.33.18l-2.45,1.01.81.03c4.46.17,4.45-6.73,0-6.9h0Z"/>
      <path class="cls-1" d="M33.25,67.22c-2.23,3.97-2.02,13.8-5.27,18.83-2.72,4.22-9.44,5.01-14.47.11-3.2-3.11-8.99,2.85-5.93,6.08,4.95,5.25,16.04,5.7,21.98,1.93,7.99-5.06,7.81-16.9,8.99-25.13.62-4.35-3.18-5.75-5.31-1.84h0Z"/>
      <path class="cls-1" d="M38.86,68.46c-.26-1.34-.36-1.24-.32.28.72-.44,1.48-.72,2.3-.86,1.78-.45,3.73-.42,5.57-.5,3.16-.13,6.33-.13,9.5-.03,7.18.22,14.34.97,21.44,2.1,5.47.87,12.44,3.69,17.83,1.47,4.9-2.03,6.89-7.58,11.5-10.09,2.48-1.35,5.38-2.17,8.22-1.98s3.8,1.64,5.93,2.84-1.64-1.54-2.04-1.79c-4.37-2.72-9.69-1.96-14.03.46-5.37,2.98-8.78,8.37-14.96,10.01s-12.72.23-18.75-.98c-4.36-.88-6.22,5.77-1.84,6.65,5.95,1.2,12.11,2.37,18.2,1.71s11.01-3.37,15.67-7.41c2.31-2,4.76-4.45,7.88-5.09,3.73-.76,5.12,1.96,8.25,3.16,4.82,1.85,8.54-2.2,7.91-6.98-1.7-12.87-19.41-10.4-26.78-4.63-2.16,1.68-3.67,3.75-5.47,5.77-2.95,3.3-6.3,1.92-10.22,1.18-6.85-1.28-13.78-2.26-20.73-2.83-6.89-.57-28.34-5.5-31.74,9.4-.99,4.33,7.85,2.47,6.68-1.84h0l.02.02Z"/>
      <path class="cls-1" d="M55.52,68.55c-5.3-1.54-15.08-4.07-18.5,1.98-3.5,6.2.53,15.44-6.05,20.28-3.55,2.61.54,9.74,3.72,6.62,4.89-4.81,6.48-8.73,7.24-14.32.22-1.56,1.84-5.75,3.04-6.91,1.94-1.89,3.39-1.12,2.84,4.06-.47,4.43,11.99-10.45,7.71-11.69h0Z"/>
      <path class="cls-1" d="M17.93,91.04c-2.49.09-4.83-4.05-6.08-5.82-1.94-2.74-4.93-3.36-8.12-3.04-4.39.44-4.44,7.34,0,6.9,1.76-.17,2.14-.31,3.08,1.1.87,1.31,1.94,2.49,3.05,3.62,2.25,2.25,4.72,4.25,8.07,4.13,4.44-.16,4.47-7.07,0-6.9h0Z"/>
    </g>
  </g>
</svg>